# xmcd
#
# Track frame offsets:
# 182
# 23025
# 52360
# 71360
# 92002
# 113090
# 140817
# 165557
# 188020
# 210612
# 233090
# 247937
#
# Disc length: 3544 seconds
#
#
# Revision: 6
# Processed by: cddbd v1.5.2PL0 Copyright (c) Steve Scherf et al.
# Submitted via: FreeRIP 2.951 
#
DISCID=a10dd60c
DTITLE=Taj Mahal - Kulanjan
DYEAR=1999
DGENRE=Blues
TTITLE0=Queen Bee
TTITLE1=Tunkaranke
TTITLE2=Ol' Georgie Buck
TTITLE3=Kulanjan
TTITLE4=Fanta
TTITLE5=Guede Man Na
TTITLE6=Catfish Blues
TTITLE7=K'an Ben
TTITLE8=Take This Hammer
TTITLE9=Atlanta Kaira
TTITLE10=Mississippi-Mali Blues
TTITLE11=Sahara
EXTD=Henry Saint Clair Fredericks, better known by the stage name Taj Mahal (born May 17, 1942), is an American blues musician.\nHe was born in Harlem in New York City, but grew up in Springfield, Massachusetts. 
EXTT0=
EXTT1=
EXTT2=
EXTT3=
EXTT4=
EXTT5=
EXTT6=
EXTT7=
EXTT8=
EXTT9=
EXTT10=
EXTT11=
PLAYORDER=
